<?xml version="1.0" encoding="UTF-8"?>
<svg xmlns="http://www.w3.org/2000/svg" xmlns:xlink="http://www.w3.org/1999/xlink" width="45px" height="45px" viewBox="0 0 45 45" version="1.1">
<g id="surface1">
<path style=" stroke:none;fill-rule:evenodd;fill:rgb(4.313725%,100%,87.45098%);fill-opacity:1;" d="M 20.851562 1.914062 C 22.703125 1.886719 24.296875 2.894531 25.707031 4.296875 L 25.707031 4.300781 L 28.070312 6.660156 C 28.335938 6.265625 28.640625 5.890625 28.988281 5.542969 C 31.878906 2.652344 36.566406 2.652344 39.457031 5.542969 C 42.347656 8.433594 42.347656 13.121094 39.457031 16.011719 C 39.109375 16.359375 38.734375 16.664062 38.339844 16.929688 L 40.699219 19.292969 L 40.703125 19.292969 C 42.105469 20.703125 43.113281 22.296875 43.085938 24.148438 C 43.058594 25.988281 42.019531 27.523438 40.699219 28.835938 C 40.699219 28.835938 40.695312 28.835938 40.695312 28.835938 L 38.304688 31.230469 C 37.410156 32.125 36.238281 32.03125 35.535156 31.730469 C 34.835938 31.4375 34.089844 30.757812 33.917969 29.71875 C 33.800781 28.992188 33.460938 28.296875 32.898438 27.734375 C 31.472656 26.308594 29.160156 26.308594 27.734375 27.734375 C 26.308594 29.160156 26.308594 31.472656 27.734375 32.898438 C 28.296875 33.460938 28.992188 33.796875 29.722656 33.917969 C 30.757812 34.085938 31.4375 34.832031 31.730469 35.53125 C 32.03125 36.238281 32.125 37.410156 31.230469 38.304688 L 28.832031 40.703125 C 28.832031 40.703125 28.832031 40.703125 28.828125 40.703125 C 27.519531 42.023438 25.984375 43.058594 24.148438 43.085938 C 22.296875 43.113281 20.707031 42.109375 19.300781 40.707031 L 16.929688 38.339844 C 16.664062 38.734375 16.359375 39.109375 16.011719 39.457031 C 13.121094 42.347656 8.433594 42.347656 5.542969 39.457031 C 2.652344 36.566406 2.652344 31.878906 5.542969 28.988281 C 5.894531 28.640625 6.265625 28.335938 6.664062 28.070312 L 4.300781 25.707031 L 4.296875 25.707031 C 2.894531 24.296875 1.886719 22.703125 1.914062 20.851562 C 1.941406 19.011719 2.980469 17.476562 4.300781 16.164062 C 4.300781 16.164062 4.304688 16.164062 4.304688 16.160156 L 6.695312 13.769531 C 7.589844 12.875 8.761719 12.96875 9.46875 13.269531 C 10.167969 13.5625 10.914062 14.242188 11.082031 15.28125 C 11.203125 16.007812 11.539062 16.703125 12.101562 17.265625 C 13.53125 18.691406 15.839844 18.691406 17.265625 17.265625 C 18.691406 15.839844 18.691406 13.527344 17.265625 12.101562 C 16.703125 11.539062 16.007812 11.203125 15.28125 11.082031 C 14.242188 10.914062 13.5625 10.167969 13.269531 9.46875 C 12.96875 8.761719 12.875 7.589844 13.769531 6.695312 L 16.160156 4.304688 C 16.164062 4.304688 16.164062 4.300781 16.164062 4.300781 C 17.476562 2.980469 19.011719 1.941406 20.851562 1.914062 Z M 20.90625 5.664062 C 20.523438 5.671875 19.875 5.886719 18.824219 6.945312 L 17.800781 7.96875 C 18.566406 8.324219 19.285156 8.820312 19.917969 9.453125 C 22.808594 12.339844 22.808594 17.027344 19.917969 19.917969 C 17.027344 22.808594 12.34375 22.808594 9.453125 19.917969 C 8.820312 19.285156 8.324219 18.566406 7.96875 17.800781 L 6.945312 18.824219 C 5.886719 19.875 5.671875 20.523438 5.664062 20.90625 C 5.660156 21.277344 5.84375 21.945312 6.953125 23.054688 C 6.953125 23.054688 6.953125 23.058594 6.953125 23.058594 L 11.320312 27.425781 C 11.824219 27.929688 12 28.671875 11.773438 29.34375 C 11.550781 30.019531 10.964844 30.507812 10.257812 30.609375 C 9.503906 30.714844 8.777344 31.058594 8.195312 31.640625 C 6.769531 33.066406 6.769531 35.378906 8.195312 36.804688 C 9.621094 38.230469 11.933594 38.230469 13.359375 36.804688 C 13.941406 36.222656 14.285156 35.496094 14.390625 34.742188 C 14.492188 34.039062 14.980469 33.449219 15.65625 33.226562 C 16.328125 33 17.070312 33.175781 17.574219 33.679688 L 21.949219 38.054688 C 23.058594 39.160156 23.722656 39.34375 24.09375 39.335938 C 24.476562 39.332031 25.121094 39.117188 26.171875 38.058594 L 27.199219 37.03125 C 26.433594 36.675781 25.714844 36.179688 25.082031 35.546875 C 22.191406 32.65625 22.191406 27.972656 25.082031 25.082031 C 27.972656 22.191406 32.660156 22.191406 35.550781 25.082031 C 36.179688 25.714844 36.675781 26.433594 37.03125 27.199219 L 38.054688 26.175781 C 39.113281 25.125 39.328125 24.476562 39.335938 24.09375 C 39.339844 23.722656 39.15625 23.054688 38.050781 21.945312 C 38.046875 21.945312 38.046875 21.941406 38.046875 21.941406 L 33.679688 17.574219 C 33.175781 17.070312 33 16.328125 33.226562 15.65625 C 33.449219 14.980469 34.039062 14.492188 34.742188 14.390625 C 35.496094 14.285156 36.222656 13.941406 36.804688 13.359375 C 38.230469 11.933594 38.230469 9.621094 36.804688 8.195312 C 35.378906 6.769531 33.066406 6.769531 31.640625 8.195312 C 31.058594 8.777344 30.714844 9.503906 30.609375 10.257812 C 30.507812 10.960938 30.019531 11.550781 29.34375 11.773438 C 28.671875 12 27.929688 11.824219 27.425781 11.320312 L 23.058594 6.953125 C 23.058594 6.953125 23.054688 6.953125 23.054688 6.953125 C 21.945312 5.84375 21.277344 5.660156 20.90625 5.664062 Z M 20.90625 5.664062 "/>
</g>
</svg>
