<?xml version="1.0" encoding="UTF-8"?>
<svg xmlns="http://www.w3.org/2000/svg" xmlns:xlink="http://www.w3.org/1999/xlink" width="40px" height="40px" viewBox="0 0 40 40" version="1.1">
<g id="surface1">
<path style=" stroke:none;fill-rule:evenodd;fill:rgb(27.843137%,100%,52.54902%);fill-opacity:1;" d="M 18.535156 1.703125 C 20.183594 1.679688 21.597656 2.574219 22.847656 3.820312 L 22.851562 3.820312 L 24.949219 5.921875 C 25.1875 5.570312 25.457031 5.238281 25.769531 4.929688 C 28.335938 2.359375 32.503906 2.359375 35.070312 4.929688 C 37.640625 7.496094 37.640625 11.664062 35.070312 14.230469 C 34.761719 14.542969 34.429688 14.8125 34.078125 15.050781 L 36.179688 17.148438 L 36.179688 17.152344 C 37.425781 18.402344 38.320312 19.816406 38.296875 21.464844 C 38.273438 23.101562 37.351562 24.464844 36.175781 25.632812 L 34.046875 27.761719 C 33.253906 28.554688 32.214844 28.46875 31.585938 28.207031 C 30.964844 27.941406 30.300781 27.339844 30.148438 26.417969 C 30.042969 25.769531 29.742188 25.152344 29.242188 24.652344 C 27.972656 23.382812 25.917969 23.382812 24.652344 24.652344 C 23.386719 25.917969 23.386719 27.972656 24.652344 29.242188 C 25.152344 29.742188 25.773438 30.042969 26.417969 30.148438 C 27.339844 30.300781 27.945312 30.964844 28.207031 31.585938 C 28.472656 32.210938 28.554688 33.253906 27.761719 34.046875 L 25.628906 36.179688 C 25.628906 36.179688 25.628906 36.179688 25.625 36.183594 C 24.460938 37.351562 23.097656 38.273438 21.464844 38.300781 C 19.820312 38.324219 18.40625 37.429688 17.15625 36.183594 L 15.050781 34.078125 C 14.8125 34.429688 14.542969 34.761719 14.230469 35.070312 C 11.664062 37.640625 7.496094 37.640625 4.929688 35.070312 C 2.359375 32.503906 2.359375 28.335938 4.929688 25.769531 C 5.238281 25.457031 5.570312 25.1875 5.921875 24.949219 L 3.820312 22.851562 L 3.820312 22.847656 C 2.574219 21.597656 1.679688 20.179688 1.703125 18.535156 C 1.726562 16.898438 2.648438 15.535156 3.824219 14.367188 L 5.953125 12.238281 C 6.746094 11.445312 7.789062 11.527344 8.414062 11.792969 C 9.035156 12.054688 9.699219 12.660156 9.851562 13.582031 C 9.957031 14.226562 10.257812 14.847656 10.757812 15.347656 C 12.027344 16.617188 14.082031 16.617188 15.347656 15.347656 C 16.617188 14.082031 16.617188 12.027344 15.347656 10.757812 C 14.847656 10.257812 14.230469 9.957031 13.582031 9.851562 C 12.660156 9.699219 12.054688 9.035156 11.792969 8.414062 C 11.527344 7.789062 11.445312 6.746094 12.238281 5.953125 L 14.367188 3.824219 C 15.535156 2.648438 16.898438 1.726562 18.535156 1.703125 Z M 18.582031 5.035156 C 18.242188 5.039062 17.667969 5.230469 16.730469 6.175781 L 16.726562 6.179688 L 15.820312 7.082031 C 16.503906 7.402344 17.144531 7.839844 17.707031 8.402344 C 20.273438 10.96875 20.273438 15.136719 17.707031 17.703125 C 15.136719 20.273438 10.972656 20.273438 8.402344 17.703125 C 7.839844 17.144531 7.402344 16.503906 7.085938 15.820312 L 6.175781 16.730469 C 5.230469 17.667969 5.039062 18.242188 5.035156 18.582031 C 5.03125 18.914062 5.195312 19.507812 6.179688 20.496094 L 10.0625 24.378906 C 10.511719 24.824219 10.664062 25.484375 10.464844 26.085938 C 10.265625 26.683594 9.746094 27.117188 9.121094 27.207031 C 8.449219 27.300781 7.804688 27.605469 7.285156 28.125 C 6.019531 29.390625 6.019531 31.449219 7.285156 32.714844 C 8.550781 33.980469 10.609375 33.980469 11.875 32.714844 C 12.394531 32.195312 12.699219 31.550781 12.792969 30.878906 C 12.882812 30.253906 13.316406 29.734375 13.914062 29.535156 C 14.515625 29.335938 15.175781 29.488281 15.621094 29.9375 L 19.511719 33.824219 C 19.511719 33.824219 19.511719 33.828125 19.511719 33.828125 C 20.496094 34.808594 21.089844 34.972656 21.417969 34.964844 C 21.757812 34.960938 22.332031 34.769531 23.261719 33.832031 L 24.179688 32.914062 C 23.496094 32.597656 22.855469 32.160156 22.296875 31.597656 C 19.726562 29.03125 19.726562 24.863281 22.296875 22.292969 C 24.863281 19.726562 29.03125 19.726562 31.597656 22.292969 C 32.160156 22.855469 32.601562 23.496094 32.917969 24.175781 L 33.824219 23.269531 C 34.769531 22.332031 34.960938 21.757812 34.964844 21.417969 C 34.96875 21.085938 34.804688 20.492188 33.820312 19.507812 C 33.820312 19.503906 33.820312 19.503906 33.820312 19.503906 L 29.9375 15.621094 C 29.488281 15.175781 29.335938 14.515625 29.535156 13.914062 C 29.734375 13.316406 30.253906 12.882812 30.878906 12.792969 C 31.550781 12.699219 32.195312 12.394531 32.714844 11.875 C 33.984375 10.605469 33.984375 8.550781 32.714844 7.285156 C 31.449219 6.019531 29.394531 6.019531 28.125 7.285156 C 27.605469 7.804688 27.304688 8.449219 27.207031 9.121094 C 27.117188 9.746094 26.683594 10.265625 26.085938 10.464844 C 25.484375 10.664062 24.824219 10.511719 24.378906 10.0625 L 20.496094 6.179688 C 19.507812 5.195312 18.914062 5.03125 18.582031 5.035156 Z M 18.582031 5.035156 "/>
</g>
</svg>
